<svg width="16" height="33" viewBox="0 0 16 33" fill="none" xmlns="http://www.w3.org/2000/svg">
<path d="M6.40242 1.71322H6.53722V3.53304H8.69405V1.71322H8.82885C8.96365 1.71322 9.09845 1.57841 9.09845 1.44361V0.837004C9.09845 0.634802 8.96365 0.5 8.82885 0.5H6.40242C6.26762 0.5 6.13281 0.634802 6.13281 0.769603V1.37621C6.13281 1.57841 6.26762 1.71322 6.40242 1.71322Z" fill="white"/>
<path d="M9.90599 31.0322H8.69278V23.7529H6.53595V31.0996H5.32274C4.31172 31.0996 3.57031 31.9084 3.57031 32.852H11.7258C11.7258 31.841 10.917 31.0322 9.90599 31.0322Z" fill="white"/>
<path d="M13.8846 4.20703H1.34802C0.606608 4.20703 0 4.81364 0 5.55505V21.7313C0 22.4727 0.606608 23.0793 1.34802 23.0793H13.952C14.6934 23.0793 15.3 22.4727 15.3 21.7313V5.55505C15.2326 4.81364 14.626 4.20703 13.8846 4.20703ZM1.07841 22.4053C0.808811 22.4053 0.674009 22.2031 0.674009 22.0009C0.674009 21.7313 0.876212 21.5965 1.07841 21.5965C1.34802 21.5965 1.48282 21.7987 1.48282 22.0009C1.55022 22.2031 1.34802 22.4053 1.07841 22.4053ZM1.07841 5.75725C0.808811 5.75725 0.674009 5.55505 0.674009 5.35285C0.674009 5.08324 0.876212 4.94844 1.07841 4.94844C1.34802 4.94844 1.48282 5.15064 1.48282 5.35285C1.55022 5.55505 1.34802 5.75725 1.07841 5.75725ZM13.2106 20.3158H2.02203C1.81982 20.3158 1.68502 20.181 1.68502 19.9788C1.68502 19.7766 1.81982 19.6418 2.02203 19.6418H13.2106C13.4128 19.6418 13.5476 19.7766 13.5476 19.9788C13.5476 20.181 13.4128 20.3158 13.2106 20.3158ZM13.2106 18.5634H2.02203C1.81982 18.5634 1.68502 18.4286 1.68502 18.2264C1.68502 18.0242 1.81982 17.8894 2.02203 17.8894H13.2106C13.4128 17.8894 13.5476 18.0242 13.5476 18.2264C13.5476 18.3612 13.4128 18.5634 13.2106 18.5634ZM13.5476 15.126C13.5476 15.5304 13.2106 15.8674 12.8062 15.8674H2.35903C1.95463 15.8674 1.61762 15.5304 1.61762 15.126V6.97047C1.61762 6.56606 1.95463 6.22906 2.35903 6.22906H12.8736C13.278 6.22906 13.615 6.56606 13.615 6.97047V15.126H13.5476ZM14.1542 22.4053C13.8846 22.4053 13.7498 22.2031 13.7498 22.0009C13.7498 21.7313 13.952 21.5965 14.1542 21.5965C14.4238 21.5965 14.5586 21.7987 14.5586 22.0009C14.5586 22.2031 14.4238 22.4053 14.1542 22.4053ZM14.1542 5.75725C13.8846 5.75725 13.7498 5.55505 13.7498 5.35285C13.7498 5.08324 13.952 4.94844 14.1542 4.94844C14.4238 4.94844 14.5586 5.15064 14.5586 5.35285C14.5586 5.55505 14.4238 5.75725 14.1542 5.75725Z" fill="white"/>
</svg>
