<svg width="26" height="34" viewBox="0 0 26 34" fill="none" xmlns="http://www.w3.org/2000/svg">
<path d="M24.462 30.5311C24.4438 27.6824 22.782 25.1076 20.189 23.9207H18.7464C18.7464 26.3676 15.989 28.3581 12.5742 28.3581C9.15941 28.3581 6.40202 26.3676 6.40202 23.9207H5.36115C2.49419 25.1442 0.649842 27.9563 0.668103 31.0607C0.668103 31.9007 1.36202 32.5946 2.20202 32.5946L22.9464 32.5033C23.7864 32.5033 24.4803 31.8094 24.4803 30.9694L24.462 30.5311ZM12.5377 9.84155C10.2733 9.85981 8.00897 9.47633 5.89071 8.67285V14.4798C5.89071 18.1502 8.86723 21.1268 12.5377 21.1268C16.2081 21.1268 19.1846 18.1502 19.1846 14.4798V8.67285C17.0481 9.47633 14.802 9.85981 12.5377 9.84155Z" stroke="white" stroke-width="1.21739" stroke-linecap="round" stroke-linejoin="round"/>
<path d="M21.1039 15.32V23.9208H15.2969V20.7434M4.01172 10.006C4.01172 5.29474 7.82824 1.45996 12.5578 1.45996C17.2691 1.45996 21.1039 5.27648 21.1039 10.006M4.01172 15.32V23.9208H9.72737V20.7434" stroke="white" stroke-width="1.21739" stroke-linecap="round" stroke-linejoin="round"/>
<path d="M6.60317 32.4668V30.5494M18.5458 32.4668V30.5494M4.59448 10.0607H5.891V15.3198H4.59448C3.95535 15.3198 3.42578 14.7902 3.42578 14.1511V11.2294C3.42578 10.5902 3.93708 10.0607 4.59448 10.0607ZM4.59448 10.0607C4.57621 10.0607 4.57621 10.0607 4.59448 10.0607ZM12.538 9.84155C10.2736 9.85981 8.00926 9.47633 5.891 8.67285V14.4798C5.891 18.1502 8.86752 21.1268 12.538 21.1268C16.2084 21.1268 19.1849 18.1502 19.1849 14.4798V8.67285C17.0484 9.47633 14.8023 9.85981 12.538 9.84155Z" stroke="white" stroke-width="1.21739" stroke-linecap="round" stroke-linejoin="round"/>
<path d="M20.4616 15.3382H19.1651V10.0791H20.4616C21.1008 10.0791 21.6303 10.6087 21.6303 11.2478V14.1695C21.6486 14.7904 21.1373 15.32 20.4616 15.3382ZM20.4616 15.3382C20.4799 15.3382 20.4799 15.3382 20.4616 15.3382ZM19.8773 15.5208V16.7991C19.8773 17.6756 19.1651 18.3695 18.3069 18.3695H12.5547" stroke="white" stroke-width="1.21739" stroke-linecap="round" stroke-linejoin="round"/>
</svg>
